<svg width="303" height="117" viewBox="0 0 303 117" fill="none" xmlns="http://www.w3.org/2000/svg">
<path d="M2.11364 50.482H4.63636L10.5682 64.9706H10.7727L16.7045 50.482H19.2273V67.9365H17.25V54.6752H17.0795L11.625 67.9365H9.71591L4.26136 54.6752H4.09091V67.9365H2.11364V50.482ZM24.9311 59.5843H28.6811C30.2152 59.5843 31.3885 59.9735 32.201 60.7519C33.0135 61.5303 33.4197 62.5161 33.4197 63.7093C33.4197 64.4933 33.2379 65.2064 32.8743 65.8485C32.5107 66.4848 31.9766 66.9933 31.272 67.374C30.5675 67.749 29.7038 67.9365 28.6811 67.9365H23.1925V54.8456H25.2038V66.0615H28.6811C29.4766 66.0615 30.13 65.8513 30.6413 65.4308C31.1527 65.0104 31.4084 64.4706 31.4084 63.8115C31.4084 63.1183 31.1527 62.553 30.6413 62.1155C30.13 61.678 29.4766 61.4593 28.6811 61.4593H24.9311V59.5843ZM35.4993 67.9365V54.8456H37.5107V67.9365H35.4993ZM41.1925 54.8456H43.2038V66.0615H48.147V54.8456H50.1584V66.0615H55.1016V54.8456H57.1129V67.9365H41.1925V54.8456ZM60.7862 67.9365V54.8456H62.7976V60.5388H64.1271L68.8317 54.8456H71.4226L66.1385 61.1524L71.4908 67.9365H68.8999L64.6044 62.4138H62.7976V67.9365H60.7862ZM77.5291 68.2433C76.6996 68.2433 75.9467 68.0871 75.2706 67.7746C74.5945 67.4564 74.0575 66.999 73.6598 66.4024C73.2621 65.8002 73.0632 65.0729 73.0632 64.2206C73.0632 63.4706 73.2109 62.8627 73.5064 62.3968C73.8018 61.9252 74.1967 61.5558 74.6911 61.2888C75.1854 61.0218 75.7308 60.8229 76.3274 60.6922C76.9297 60.5558 77.5348 60.4479 78.1428 60.3683C78.9382 60.2661 79.5831 60.1894 80.0774 60.1382C80.5774 60.0814 80.9411 59.9877 81.1683 59.857C81.4013 59.7263 81.5178 59.499 81.5178 59.1752V59.107C81.5178 58.2661 81.2876 57.6127 80.8274 57.1468C80.3729 56.6808 79.6825 56.4479 78.7564 56.4479C77.7962 56.4479 77.0433 56.6581 76.4979 57.0786C75.9524 57.499 75.5689 57.9479 75.3473 58.4252L73.4382 57.7433C73.7791 56.9479 74.2337 56.3286 74.8018 55.8854C75.3757 55.4365 76.0007 55.124 76.6768 54.9479C77.3587 54.7661 78.0291 54.6752 78.6882 54.6752C79.1087 54.6752 79.5916 54.7263 80.1371 54.8286C80.6882 54.9252 81.2195 55.1269 81.7308 55.4337C82.2479 55.7405 82.6768 56.2036 83.0178 56.8229C83.3587 57.4422 83.5291 58.2718 83.5291 59.3115V67.9365H81.5178V66.1638H81.4155C81.2791 66.4479 81.0518 66.7519 80.7337 67.0757C80.4155 67.3996 79.9922 67.6752 79.4638 67.9024C78.9354 68.1297 78.2905 68.2433 77.5291 68.2433ZM77.8359 66.4365C78.6314 66.4365 79.3018 66.2803 79.8473 65.9678C80.3984 65.6553 80.8132 65.2519 81.0916 64.7575C81.3757 64.2632 81.5178 63.7433 81.5178 63.1979V61.357C81.4325 61.4593 81.245 61.553 80.9553 61.6382C80.6712 61.7178 80.3416 61.7888 79.9666 61.8513C79.5973 61.9081 79.2365 61.9593 78.8842 62.0047C78.5376 62.0445 78.2564 62.0786 78.0405 62.107C77.5178 62.1752 77.0291 62.286 76.5746 62.4394C76.1257 62.5871 75.7621 62.8115 75.4837 63.1127C75.2109 63.4081 75.0746 63.8115 75.0746 64.3229C75.0746 65.0218 75.3331 65.5502 75.8501 65.9081C76.3729 66.2604 77.0348 66.4365 77.8359 66.4365ZM97.7344 67.9365L91.7344 59.9252H89.5866V67.9365H87.473V50.482H89.5866V58.0502H90.5071L97.4957 50.482H100.018L92.9616 58.1524L100.257 67.9365H97.7344ZM101.557 67.9365V66.0615H102.034C102.426 66.0615 102.753 65.9848 103.014 65.8314C103.276 65.6723 103.486 65.3968 103.645 65.0047C103.81 64.607 103.935 64.0558 104.02 63.3513C104.111 62.6411 104.176 61.7377 104.216 60.6411L104.455 54.8456H113.182V67.9365H111.17V56.7206H106.364L106.159 61.3911C106.114 62.4649 106.017 63.411 105.869 64.2291C105.727 65.0416 105.509 65.7235 105.213 66.2746C104.923 66.8257 104.537 67.2405 104.054 67.5189C103.571 67.7973 102.966 67.9365 102.239 67.9365H101.557ZM118.884 64.9706L125.19 54.8456H127.509V67.9365H125.497V57.8115L119.224 67.9365H116.872V54.8456H118.884V64.9706ZM131.192 67.9365V54.8456H133.204V60.5388H134.533L139.238 54.8456H141.829L136.545 61.1524L141.897 67.9365H139.306L135.011 62.4138H133.204V67.9365H131.192Z" fill="black"/>
<path d="M2.11364 50.482V50.3057H1.93735V50.482H2.11364ZM4.63636 50.482L4.79951 50.4152L4.75468 50.3057H4.63636V50.482ZM10.5682 64.9706L10.405 65.0374L10.4499 65.1469H10.5682V64.9706ZM10.7727 64.9706V65.1469H10.891L10.9359 65.0374L10.7727 64.9706ZM16.7045 50.482V50.3057H16.5862L16.5414 50.4152L16.7045 50.482ZM19.2273 50.482H19.4036V50.3057H19.2273V50.482ZM19.2273 67.9365V68.1128H19.4036V67.9365H19.2273ZM17.25 67.9365H17.0737V68.1128H17.25V67.9365ZM17.25 54.6752H17.4263V54.4989H17.25V54.6752ZM17.0795 54.6752V54.4989H16.9614L16.9165 54.6081L17.0795 54.6752ZM11.625 67.9365V68.1128H11.7431L11.788 68.0036L11.625 67.9365ZM9.71591 67.9365L9.55288 68.0036L9.5978 68.1128H9.71591V67.9365ZM4.26136 54.6752L4.4244 54.6081L4.37947 54.4989H4.26136V54.6752ZM4.09091 54.6752V54.4989H3.91462V54.6752H4.09091ZM4.09091 67.9365V68.1128H4.2672V67.9365H4.09091ZM2.11364 67.9365H1.93735V68.1128H2.11364V67.9365ZM2.11364 50.6583H4.63636V50.3057H2.11364V50.6583ZM4.47322 50.5488L10.405 65.0374L10.7313 64.9038L4.79951 50.4152L4.47322 50.5488ZM10.5682 65.1469H10.7727V64.7943H10.5682V65.1469ZM10.9359 65.0374L16.8677 50.5488L16.5414 50.4152L10.6096 64.9038L10.9359 65.0374ZM16.7045 50.6583H19.2273V50.3057H16.7045V50.6583ZM19.051 50.482V67.9365H19.4036V50.482H19.051ZM19.2273 67.7602H17.25V68.1128H19.2273V67.7602ZM17.4263 67.9365V54.6752H17.0737V67.9365H17.4263ZM17.25 54.4989H17.0795V54.8514H17.25V54.4989ZM16.9165 54.6081L11.462 67.8695L11.788 68.0036L17.2426 54.7422L16.9165 54.6081ZM11.625 67.7602H9.71591V68.1128H11.625V67.7602ZM9.87894 67.8695L4.4244 54.6081L4.09833 54.7422L9.55288 68.0036L9.87894 67.8695ZM4.26136 54.4989H4.09091V54.8514H4.26136V54.4989ZM3.91462 54.6752V67.9365H4.2672V54.6752H3.91462ZM4.09091 67.7602H2.11364V68.1128H4.09091V67.7602ZM2.28992 67.9365V50.482H1.93735V67.9365H2.28992ZM24.9311 59.5843V59.408H24.7548V59.5843H24.9311ZM32.201 60.7519L32.3229 60.6246L32.3229 60.6246L32.201 60.7519ZM32.8743 65.8485L33.0274 65.9359L33.0277 65.9353L32.8743 65.8485ZM31.272 67.374L31.3548 67.5296L31.3558 67.5291L31.272 67.374ZM23.1925 67.9365H23.0162V68.1128H23.1925V67.9365ZM23.1925 54.8456V54.6693H23.0162V54.8456H23.1925ZM25.2038 54.8456H25.3801V54.6693H25.2038V54.8456ZM25.2038 66.0615H25.0275V66.2378H25.2038V66.0615ZM24.9311 61.4593H24.7548V61.6355H24.9311V61.4593ZM35.4993 67.9365H35.323V68.1128H35.4993V67.9365ZM35.4993 54.8456V54.6693H35.323V54.8456H35.4993ZM37.5107 54.8456H37.6869V54.6693H37.5107V54.8456ZM37.5107 67.9365V68.1128H37.6869V67.9365H37.5107ZM24.9311 59.7605H28.6811V59.408H24.9311V59.7605ZM28.6811 59.7605C30.1866 59.7605 31.3098 60.1422 32.079 60.8792L32.3229 60.6246C31.4672 59.8047 30.2438 59.408 28.6811 59.408V59.7605ZM32.079 60.8792C32.8546 61.6221 33.2435 62.5609 33.2435 63.7093H33.596C33.596 62.4712 33.1724 61.4384 32.3229 60.6246L32.079 60.8792ZM33.2435 63.7093C33.2435 64.4649 33.0686 65.1477 32.7209 65.7616L33.0277 65.9353C33.4073 65.2651 33.596 64.5218 33.596 63.7093H33.2435ZM32.7212 65.761C32.3754 66.3662 31.8666 66.8524 31.1882 67.2189L31.3558 67.5291C32.0865 67.1343 32.6459 66.6035 33.0273 65.9359L32.7212 65.761ZM31.1892 67.2184C30.5163 67.5765 29.6829 67.7602 28.6811 67.7602V68.1128C29.7248 68.1128 30.6186 67.9215 31.3548 67.5296L31.1892 67.2184ZM28.6811 67.7602H23.1925V68.1128H28.6811V67.7602ZM23.3688 67.9365V54.8456H23.0162V67.9365H23.3688ZM23.1925 55.0219H25.2038V54.6693H23.1925V55.0219ZM25.0275 54.8456V66.0615H25.3801V54.8456H25.0275ZM25.2038 66.2378H28.6811V65.8852H25.2038V66.2378ZM28.6811 66.2378C29.5088 66.2378 30.2044 66.0184 30.7533 65.567L30.5294 65.2947C30.0556 65.6842 29.4443 65.8852 28.6811 65.8852V66.2378ZM30.7533 65.567C31.3052 65.1132 31.5847 64.5236 31.5847 63.8115H31.2321C31.2321 64.4176 31.0002 64.9075 30.5294 65.2947L30.7533 65.567ZM31.5847 63.8115C31.5847 63.0686 31.3078 62.4537 30.7559 61.9815L30.5267 62.2495C30.9976 62.6523 31.2321 63.1681 31.2321 63.8115H31.5847ZM30.7559 61.9815C30.207 61.5119 29.5106 61.283 28.6811 61.283V61.6355C29.4426 61.6355 30.0529 61.8441 30.5267 62.2495L30.7559 61.9815ZM28.6811 61.283H24.9311V61.6355H28.6811V61.283ZM25.1074 61.4593V59.5843H24.7548V61.4593H25.1074ZM35.6756 67.9365V54.8456H35.323V67.9365H35.6756ZM35.4993 55.0219H37.5107V54.6693H35.4993V55.0219ZM37.3344 54.8456V67.9365H37.6869V54.8456H37.3344ZM37.5107 67.7602H35.4993V68.1128H37.5107V67.7602ZM41.1925 54.8456V54.6693H41.0162V54.8456H41.1925ZM43.2038 54.8456H43.3801V54.6693H43.2038V54.8456ZM43.2038 66.0615H43.0275V66.2378H43.2038V66.0615ZM48.147 66.0615V66.2378H48.3233V66.0615H48.147ZM48.147 54.8456V54.6693H47.9707V54.8456H48.147ZM50.1584 54.8456H50.3347V54.6693H50.1584V54.8456ZM50.1584 66.0615H49.9821V66.2378H50.1584V66.0615ZM55.1016 66.0615V66.2378H55.2778V66.0615H55.1016ZM55.1016 54.8456V54.6693H54.9253V54.8456H55.1016ZM57.1129 54.8456H57.2892V54.6693H57.1129V54.8456ZM57.1129 67.9365V68.1128H57.2892V67.9365H57.1129ZM41.1925 67.9365H41.0162V68.1128H41.1925V67.9365ZM41.1925 55.0219H43.2038V54.6693H41.1925V55.0219ZM43.0275 54.8456V66.0615H43.3801V54.8456H43.0275ZM43.2038 66.2378H48.147V65.8852H43.2038V66.2378ZM48.3233 66.0615V54.8456H47.9707V66.0615H48.3233ZM48.147 55.0219H50.1584V54.6693H48.147V55.0219ZM49.9821 54.8456V66.0615H50.3347V54.8456H49.9821ZM50.1584 66.2378H55.1016V65.8852H50.1584V66.2378ZM55.2778 66.0615V54.8456H54.9253V66.0615H55.2778ZM55.1016 55.0219H57.1129V54.6693H55.1016V55.0219ZM56.9366 54.8456V67.9365H57.2892V54.8456H56.9366ZM57.1129 67.7602H41.1925V68.1128H57.1129V67.7602ZM41.3688 67.9365V54.8456H41.0162V67.9365H41.3688ZM60.7862 67.9365H60.6099V68.1128H60.7862V67.9365ZM60.7862 54.8456V54.6693H60.6099V54.8456H60.7862ZM62.7976 54.8456H62.9739V54.6693H62.7976V54.8456ZM62.7976 60.5388H62.6213V60.7151H62.7976V60.5388ZM64.1271 60.5388V60.7151H64.2101L64.263 60.6511L64.1271 60.5388ZM68.8317 54.8456V54.6693H68.7487L68.6958 54.7333L68.8317 54.8456ZM71.4226 54.8456L71.5577 54.9588L71.8003 54.6693H71.4226V54.8456ZM66.1385 61.1524L66.0034 61.0392L65.9113 61.1491L66.0001 61.2616L66.1385 61.1524ZM71.4908 67.9365V68.1128H71.8544L71.6292 67.8273L71.4908 67.9365ZM68.8999 67.9365L68.7607 68.0448L68.8136 68.1128H68.8999V67.9365ZM64.6044 62.4138L64.7436 62.3056L64.6906 62.2375H64.6044V62.4138ZM62.7976 62.4138V62.2375H62.6213V62.4138H62.7976ZM62.7976 67.9365V68.1128H62.9739V67.9365H62.7976ZM60.9625 67.9365V54.8456H60.6099V67.9365H60.9625ZM60.7862 55.0219H62.7976V54.6693H60.7862V55.0219ZM62.6213 54.8456V60.5388H62.9739V54.8456H62.6213ZM62.7976 60.7151H64.1271V60.3625H62.7976V60.7151ZM64.263 60.6511L68.9676 54.9579L68.6958 54.7333L63.9912 60.4265L64.263 60.6511ZM68.8317 55.0219H71.4226V54.6693H68.8317V55.0219ZM71.2875 54.7324L66.0034 61.0392L66.2736 61.2656L71.5577 54.9588L71.2875 54.7324ZM66.0001 61.2616L71.3524 68.0457L71.6292 67.8273L66.2769 61.0432L66.0001 61.2616ZM71.4908 67.7602H68.8999V68.1128H71.4908V67.7602ZM69.039 67.8283L64.7436 62.3056L64.4653 62.522L68.7607 68.0448L69.039 67.8283ZM64.6044 62.2375H62.7976V62.5901H64.6044V62.2375ZM62.6213 62.4138V67.9365H62.9739V62.4138H62.6213ZM62.7976 67.7602H60.7862V68.1128H62.7976V67.7602ZM75.2706 67.7746L75.1955 67.9341L75.1966 67.9346L75.2706 67.7746ZM73.6598 66.4024L73.5127 66.4996L73.5131 66.5002L73.6598 66.4024ZM73.5064 62.3968L73.6553 62.4912L73.6558 62.4903L73.5064 62.3968ZM76.3274 60.6922L76.3651 60.8644L76.3663 60.8641L76.3274 60.6922ZM78.1428 60.3683L78.1203 60.1935L78.1199 60.1935L78.1428 60.3683ZM80.0774 60.1382L80.0956 60.3136L80.0973 60.3134L80.0774 60.1382ZM81.1683 59.857L81.0821 59.7032L81.0805 59.7042L81.1683 59.857ZM80.8274 57.1468L80.7012 57.2699L80.702 57.2706L80.8274 57.1468ZM76.4979 57.0786L76.6055 57.2182L76.6055 57.2182L76.4979 57.0786ZM75.3473 58.4252L75.288 58.5912L75.4395 58.6453L75.5072 58.4994L75.3473 58.4252ZM73.4382 57.7433L73.2762 57.6739L73.2023 57.8463L73.3789 57.9094L73.4382 57.7433ZM74.8018 55.8854L74.9103 56.0244L74.9105 56.0242L74.8018 55.8854ZM76.6768 54.9479L76.7213 55.1185L76.7223 55.1182L76.6768 54.9479ZM80.1371 54.8286L80.1046 55.0018L80.1066 55.0022L80.1371 54.8286ZM81.7308 55.4337L81.6401 55.5848L81.6409 55.5853L81.7308 55.4337ZM83.0178 56.8229L82.8633 56.9079L82.8633 56.9079L83.0178 56.8229ZM83.5291 67.9365V68.1128H83.7054V67.9365H83.5291ZM81.5178 67.9365H81.3415V68.1128H81.5178V67.9365ZM81.5178 66.1638H81.694V65.9875H81.5178V66.1638ZM81.4155 66.1638V65.9875H81.3046L81.2566 66.0875L81.4155 66.1638ZM80.7337 67.0757L80.8594 67.1993L80.8594 67.1993L80.7337 67.0757ZM79.4638 67.9024L79.3941 67.7405L79.3941 67.7405L79.4638 67.9024ZM79.8473 65.9678L79.7603 65.8144L79.7597 65.8148L79.8473 65.9678ZM81.0916 64.7575L80.9388 64.6697L80.938 64.671L81.0916 64.7575ZM81.5178 61.357H81.694V60.8701L81.3823 61.2441L81.5178 61.357ZM80.9553 61.6382L81.0028 61.808L81.005 61.8074L80.9553 61.6382ZM79.9666 61.8513L79.9934 62.0255L79.9956 62.0252L79.9666 61.8513ZM78.8842 62.0047L78.9043 62.1799L78.9068 62.1795L78.8842 62.0047ZM78.0405 62.107L78.0633 62.2818L78.0635 62.2818L78.0405 62.107ZM76.5746 62.4394L76.6297 62.6068L76.6309 62.6064L76.5746 62.4394ZM75.4837 63.1127L75.3542 62.993L75.3541 62.9931L75.4837 63.1127ZM75.8501 65.9081L75.7498 66.0531L75.7516 66.0543L75.8501 65.9081ZM77.5291 68.0671C76.7222 68.0671 75.995 67.9152 75.3446 67.6146L75.1966 67.9346C75.8985 68.259 76.677 68.4196 77.5291 68.4196V68.0671ZM75.3457 67.6151C74.6973 67.31 74.1856 66.8734 73.8065 66.3046L73.5131 66.5002C73.9294 67.1247 74.4916 67.6029 75.1955 67.9341L75.3457 67.6151ZM73.8069 66.3053C73.4314 65.7367 73.2395 65.0447 73.2395 64.2206H72.8869C72.8869 65.1011 73.0927 65.8636 73.5127 66.4996L73.8069 66.3053ZM73.2395 64.2206C73.2395 63.4924 73.3831 62.9204 73.6553 62.4912L73.3575 62.3023C73.0388 62.8049 72.8869 63.4488 72.8869 64.2206H73.2395ZM73.6558 62.4903C73.9349 62.0448 74.3071 61.6966 74.7748 61.4439L74.6073 61.1337C74.0864 61.4151 73.6688 61.8055 73.357 62.3032L73.6558 62.4903ZM74.7748 61.4439C75.2535 61.1853 75.7832 60.9919 76.3651 60.8644L76.2897 60.52C75.6784 60.6539 75.1173 60.8582 74.6073 61.1337L74.7748 61.4439ZM76.3663 60.8641C76.9633 60.729 77.5631 60.622 78.1656 60.5431L78.1199 60.1935C77.5065 60.2738 76.896 60.3827 76.2885 60.5203L76.3663 60.8641ZM78.1652 60.5432C78.96 60.441 79.6033 60.3645 80.0956 60.3136L80.0593 59.9629C79.5629 60.0142 78.9164 60.0911 78.1203 60.1935L78.1652 60.5432ZM80.0973 60.3134C80.6033 60.2559 80.9966 60.1591 81.2562 60.0098L81.0805 59.7042C80.8855 59.8163 80.5515 59.9069 80.0575 59.9631L80.0973 60.3134ZM81.2546 60.0107C81.5558 59.8417 81.694 59.5468 81.694 59.1752H81.3415C81.3415 59.4513 81.2467 59.6109 81.0821 59.7032L81.2546 60.0107ZM81.694 59.1752V59.107H81.3415V59.1752H81.694ZM81.694 59.107C81.694 58.2335 81.4542 57.5304 80.9528 57.0229L80.702 57.2706C81.1211 57.6949 81.3415 58.2987 81.3415 59.107H81.694ZM80.9536 57.0236C80.4539 56.5115 79.7097 56.2716 78.7564 56.2716V56.6242C79.6554 56.6242 80.2918 56.8502 80.7012 57.2699L80.9536 57.0236ZM78.7564 56.2716C77.7723 56.2716 76.9767 56.4869 76.3902 56.9389L76.6055 57.2182C77.11 56.8293 77.8201 56.6242 78.7564 56.6242V56.2716ZM76.3902 56.9389C75.8291 57.3715 75.424 57.8413 75.1874 58.3509L75.5072 58.4994C75.7138 58.0545 76.0758 57.6265 76.6055 57.2182L76.3902 56.9389ZM75.4066 58.2591L73.4975 57.5773L73.3789 57.9094L75.288 58.5912L75.4066 58.2591ZM73.6002 57.8128C73.9318 57.0392 74.3698 56.4459 74.9103 56.0244L74.6934 55.7464C74.0975 56.2112 73.6265 56.8566 73.2762 57.6739L73.6002 57.8128ZM74.9105 56.0242C75.4662 55.5896 76.0695 55.2883 76.7213 55.1185L76.6324 54.7773C75.9319 54.9598 75.2853 55.2835 74.6932 55.7465L74.9105 56.0242ZM76.7223 55.1182C77.3903 54.9401 78.0455 54.8514 78.6882 54.8514V54.4989C78.0127 54.4989 77.327 54.5921 76.6314 54.7776L76.7223 55.1182ZM78.6882 54.8514C79.0949 54.8514 79.5667 54.901 80.1046 55.0018L80.1696 54.6553C79.6166 54.5516 79.1224 54.4989 78.6882 54.4989V54.8514ZM80.1066 55.0022C80.6351 55.0948 81.1461 55.2884 81.6401 55.5848L81.8215 55.2825C81.2928 54.9653 80.7413 54.7555 80.1675 54.6549L80.1066 55.0022ZM81.6409 55.5853C82.1264 55.8734 82.5349 56.3112 82.8633 56.9079L83.1722 56.7379C82.8188 56.0959 82.3693 55.6076 81.8208 55.2821L81.6409 55.5853ZM82.8633 56.9079C83.1847 57.4918 83.3528 58.2885 83.3528 59.3115H83.7054C83.7054 58.255 83.5326 57.3926 83.1722 56.7379L82.8633 56.9079ZM83.3528 59.3115V67.9365H83.7054V59.3115H83.3528ZM83.5291 67.7602H81.5178V68.1128H83.5291V67.7602ZM81.694 67.9365V66.1638H81.3415V67.9365H81.694ZM81.5178 65.9875H81.4155V66.3401H81.5178V65.9875ZM81.2566 66.0875C81.1314 66.3483 80.918 66.6366 80.6079 66.9522L80.8594 67.1993C81.1857 66.8671 81.4268 66.5475 81.5744 66.2401L81.2566 66.0875ZM80.6079 66.9522C80.3094 67.256 79.9069 67.5199 79.3941 67.7405L79.5334 68.0644C80.0775 67.8304 80.5215 67.5432 80.8594 67.1993L80.6079 66.9522ZM79.3941 67.7405C78.8936 67.9558 78.2739 68.0671 77.5291 68.0671V68.4196C78.3071 68.4196 78.9771 68.3036 79.5334 68.0644L79.3941 67.7405ZM77.8359 66.6128C78.6541 66.6128 79.3566 66.4521 79.9349 66.1207L79.7597 65.8148C79.2471 66.1085 78.6087 66.2602 77.8359 66.2602V66.6128ZM79.9343 66.1211C80.5099 65.7947 80.9493 65.3695 81.2452 64.8441L80.938 64.671C80.6771 65.1343 80.2869 65.5158 79.7604 65.8144L79.9343 66.1211ZM81.2445 64.8454C81.5432 64.3256 81.694 63.7756 81.694 63.1979H81.3415C81.3415 63.7111 81.2082 64.2009 80.9388 64.6697L81.2445 64.8454ZM81.694 63.1979V61.357H81.3415V63.1979H81.694ZM81.3823 61.2441C81.3617 61.2689 81.3175 61.3048 81.2344 61.3463C81.1531 61.387 81.0444 61.4283 80.9055 61.4691L81.005 61.8074C81.1559 61.763 81.2859 61.7148 81.392 61.6617C81.4964 61.6095 81.5886 61.5473 81.6532 61.4698L81.3823 61.2441ZM80.9077 61.4685C80.6312 61.5459 80.3081 61.6157 79.9376 61.6774L79.9956 62.0252C80.3752 61.9619 80.7111 61.8896 81.0028 61.808L80.9077 61.4685ZM79.9398 61.6771C79.5718 61.7337 79.2125 61.7846 78.8617 61.8299L78.9068 62.1795C79.2606 62.1339 79.6228 62.0826 79.9934 62.0255L79.9398 61.6771ZM78.8641 61.8296C78.5171 61.8694 78.2348 61.9036 78.0175 61.9322L78.0635 62.2818C78.278 62.2535 78.5582 62.2196 78.9043 62.1798L78.8641 61.8296ZM78.0177 61.9322C77.4846 62.0017 76.9847 62.1149 76.5182 62.2723L76.6309 62.6064C77.0736 62.457 77.5509 62.3486 78.0633 62.2818L78.0177 61.9322ZM76.5195 62.2719C76.0465 62.4276 75.6559 62.6667 75.3542 62.993L75.6131 63.2323C75.8683 62.9563 76.2049 62.7466 76.6297 62.6068L76.5195 62.2719ZM75.3541 62.9931C75.0438 63.3293 74.8983 63.7797 74.8983 64.3229H75.2509C75.2509 63.8433 75.3781 63.487 75.6132 63.2322L75.3541 62.9931ZM74.8983 64.3229C74.8983 65.0721 75.1793 65.6581 75.7498 66.0531L75.9505 65.7632C75.4869 65.4422 75.2509 64.9714 75.2509 64.3229H74.8983ZM75.7516 66.0543C76.3104 66.4309 77.0092 66.6128 77.8359 66.6128V66.2602C77.0604 66.2602 76.4353 66.0899 75.9487 65.7619L75.7516 66.0543ZM97.7344 67.9365L97.5933 68.0422L97.6462 68.1128H97.7344V67.9365ZM91.7344 59.9252L91.8755 59.8195L91.8226 59.7489H91.7344V59.9252ZM89.5866 59.9252V59.7489H89.4104V59.9252H89.5866ZM89.5866 67.9365V68.1128H89.7629V67.9365H89.5866ZM87.473 67.9365H87.2967V68.1128H87.473V67.9365ZM87.473 50.482V50.3057H87.2967V50.482H87.473ZM89.5866 50.482H89.7629V50.3057H89.5866V50.482ZM89.5866 58.0502H89.4104V58.2264H89.5866V58.0502ZM90.5071 58.0502V58.2264H90.5843L90.6366 58.1698L90.5071 58.0502ZM97.4957 50.482V50.3057H97.4186L97.3662 50.3624L97.4957 50.482ZM100.018 50.482L100.148 50.6013L100.42 50.3057H100.018V50.482ZM92.9616 58.1524L92.8319 58.0331L92.733 58.1406L92.8203 58.2578L92.9616 58.1524ZM100.257 67.9365V68.1128H100.608L100.398 67.8311L100.257 67.9365ZM97.8755 67.8308L91.8755 59.8195L91.5933 60.0308L97.5933 68.0422L97.8755 67.8308ZM91.7344 59.7489H89.5866V60.1014H91.7344V59.7489ZM89.4104 59.9252V67.9365H89.7629V59.9252H89.4104ZM89.5866 67.7602H87.473V68.1128H89.5866V67.7602ZM87.6493 67.9365V50.482H87.2967V67.9365H87.6493ZM87.473 50.6583H89.5866V50.3057H87.473V50.6583ZM89.4104 50.482V58.0502H89.7629V50.482H89.4104ZM89.5866 58.2264H90.5071V57.8739H89.5866V58.2264ZM90.6366 58.1698L97.6253 50.6016L97.3662 50.3624L90.3776 57.9306L90.6366 58.1698ZM97.4957 50.6583H100.018V50.3057H97.4957V50.6583ZM99.8887 50.3626L92.8319 58.0331L93.0914 58.2718L100.148 50.6013L99.8887 50.3626ZM92.8203 58.2578L100.116 68.0419L100.398 67.8311L93.103 58.0471L92.8203 58.2578ZM100.257 67.7602H97.7344V68.1128H100.257V67.7602ZM101.557 67.9365H101.381V68.1128H101.557V67.9365ZM101.557 66.0615V65.8852H101.381V66.0615H101.557ZM103.014 65.8314L103.103 65.9835L103.106 65.982L103.014 65.8314ZM103.645 65.0047L103.482 64.9372L103.482 64.9384L103.645 65.0047ZM104.02 63.3513L103.845 63.3289L103.845 63.3301L104.02 63.3513ZM104.216 60.6411L104.04 60.6338L104.04 60.6347L104.216 60.6411ZM104.455 54.8456V54.6693H104.285L104.278 54.8384L104.455 54.8456ZM113.182 54.8456H113.358V54.6693H113.182V54.8456ZM113.182 67.9365V68.1128H113.358V67.9365H113.182ZM111.17 67.9365H110.994V68.1128H111.17V67.9365ZM111.17 56.7206H111.347V56.5443H111.17V56.7206ZM106.364 56.7206V56.5443H106.195L106.188 56.7129L106.364 56.7206ZM106.159 61.3911L105.983 61.3834L105.983 61.3836L106.159 61.3911ZM105.869 64.2291L105.696 64.1978L105.696 64.1988L105.869 64.2291ZM105.213 66.2746L105.058 66.1913L105.057 66.1926L105.213 66.2746ZM101.733 67.9365V66.0615H101.381V67.9365H101.733ZM101.557 66.2378H102.034V65.8852H101.557V66.2378ZM102.034 66.2378C102.448 66.2378 102.808 66.1567 103.103 65.9834L102.925 65.6794C102.697 65.8129 102.404 65.8852 102.034 65.8852V66.2378ZM103.106 65.982C103.41 65.7969 103.64 65.485 103.808 65.071L103.482 64.9384C103.331 65.3085 103.141 65.5477 102.923 65.6808L103.106 65.982ZM103.808 65.0722C103.981 64.6532 104.109 64.0841 104.195 63.3725L103.845 63.3301C103.761 64.0276 103.638 64.5608 103.482 64.9372L103.808 65.0722ZM104.195 63.3737C104.287 62.6561 104.352 61.7469 104.392 60.6475L104.04 60.6347C104 61.7284 103.935 62.626 103.845 63.3289L104.195 63.3737ZM104.392 60.6483L104.631 54.8529L104.278 54.8384L104.04 60.6338L104.392 60.6483ZM104.455 55.0219H113.182V54.6693H104.455V55.0219ZM113.006 54.8456V67.9365H113.358V54.8456H113.006ZM113.182 67.7602H111.17V68.1128H113.182V67.7602ZM111.347 67.9365V56.7206H110.994V67.9365H111.347ZM111.17 56.5443H106.364V56.8969H111.17V56.5443ZM106.188 56.7129L105.983 61.3834L106.335 61.3988L106.54 56.7283L106.188 56.7129ZM105.983 61.3836C105.938 62.4517 105.842 63.3894 105.696 64.1978L106.043 64.2605C106.192 63.4325 106.29 62.4782 106.335 61.3985L105.983 61.3836ZM105.696 64.1988C105.556 64.9983 105.342 65.661 105.058 66.1913L105.368 66.3579C105.675 65.7859 105.899 65.085 106.043 64.2595L105.696 64.1988ZM105.057 66.1926C104.781 66.7177 104.417 67.1063 103.966 67.3662L104.142 67.6716C104.657 67.3747 105.066 66.9337 105.369 66.3566L105.057 66.1926ZM103.966 67.3662C103.517 67.6251 102.944 67.7602 102.239 67.7602V68.1128C102.988 68.1128 103.625 67.9695 104.142 67.6716L103.966 67.3662ZM102.239 67.7602H101.557V68.1128H102.239V67.7602ZM118.884 64.9706H118.707V65.587L119.033 65.0638L118.884 64.9706ZM125.19 54.8456V54.6693H125.092L125.041 54.7524L125.19 54.8456ZM127.509 54.8456H127.685V54.6693H127.509V54.8456ZM127.509 67.9365V68.1128H127.685V67.9365H127.509ZM125.497 67.9365H125.321V68.1128H125.497V67.9365ZM125.497 57.8115H125.673V57.1922L125.347 57.7187L125.497 57.8115ZM119.224 67.9365V68.1128H119.323L119.374 68.0294L119.224 67.9365ZM116.872 67.9365H116.696V68.1128H116.872V67.9365ZM116.872 54.8456V54.6693H116.696V54.8456H116.872ZM118.884 54.8456H119.06V54.6693H118.884V54.8456ZM119.033 65.0638L125.34 54.9388L125.041 54.7524L118.734 64.8774L119.033 65.0638ZM125.19 55.0219H127.509V54.6693H125.19V55.0219ZM127.332 54.8456V67.9365H127.685V54.8456H127.332ZM127.509 67.7602H125.497V68.1128H127.509V67.7602ZM125.673 67.9365V57.8115H125.321V67.9365H125.673ZM125.347 57.7187L119.075 67.8437L119.374 68.0294L125.647 57.9044L125.347 57.7187ZM119.224 67.7602H116.872V68.1128H119.224V67.7602ZM117.048 67.9365V54.8456H116.696V67.9365H117.048ZM116.872 55.0219H118.884V54.6693H116.872V55.0219ZM118.707 54.8456V64.9706H119.06V54.8456H118.707ZM131.192 67.9365H131.016V68.1128H131.192V67.9365ZM131.192 54.8456V54.6693H131.016V54.8456H131.192ZM133.204 54.8456H133.38V54.6693H133.204V54.8456ZM133.204 60.5388H133.028V60.7151H133.204V60.5388ZM134.533 60.5388V60.7151H134.616L134.669 60.6511L134.533 60.5388ZM139.238 54.8456V54.6693H139.155L139.102 54.7333L139.238 54.8456ZM141.829 54.8456L141.964 54.9588L142.207 54.6693H141.829V54.8456ZM136.545 61.1524L136.41 61.0392L136.318 61.1491L136.406 61.2616L136.545 61.1524ZM141.897 67.9365V68.1128H142.261L142.035 67.8273L141.897 67.9365ZM139.306 67.9365L139.167 68.0448L139.22 68.1128H139.306V67.9365ZM135.011 62.4138L135.15 62.3056L135.097 62.2375H135.011V62.4138ZM133.204 62.4138V62.2375H133.028V62.4138H133.204ZM133.204 67.9365V68.1128H133.38V67.9365H133.204ZM131.369 67.9365V54.8456H131.016V67.9365H131.369ZM131.192 55.0219H133.204V54.6693H131.192V55.0219ZM133.028 54.8456V60.5388H133.38V54.8456H133.028ZM133.204 60.7151H134.533V60.3625H133.204V60.7151ZM134.669 60.6511L139.374 54.9579L139.102 54.7333L134.397 60.4265L134.669 60.6511ZM139.238 55.0219H141.829V54.6693H139.238V55.0219ZM141.694 54.7324L136.41 61.0392L136.68 61.2656L141.964 54.9588L141.694 54.7324ZM136.406 61.2616L141.759 68.0457L142.035 67.8273L136.683 61.0432L136.406 61.2616ZM141.897 67.7602H139.306V68.1128H141.897V67.7602ZM139.445 67.8283L135.15 62.3056L134.872 62.522L139.167 68.0448L139.445 67.8283ZM135.011 62.2375H133.204V62.5901H135.011V62.2375ZM133.028 62.4138V67.9365H133.38V62.4138H133.028ZM133.204 67.7602H131.192V68.1128H133.204V67.7602Z" fill="#A82200"/>
<ellipse cx="23.2491" cy="37.6547" rx="23.2491" ry="37.6547" transform="matrix(0.857282 0.514847 -0.437739 0.899102 203.966 13)" fill="#D9D9D9"/>
<path d="M197.973 32.722L215.056 42.8328M232.139 52.9435L215.056 42.8328M215.056 42.8328L224.912 25.9816" stroke="black"/>
<path d="M210.561 39.9618L219.552 22.9858" stroke="black"/>
</svg>
