<?xml version="1.0" encoding="UTF-8" standalone="no"?>
<!-- Created with Inkscape (http://www.inkscape.org/) -->

<svg
   width="13.402527mm"
   height="6.0641255mm"
   viewBox="0 0 13.402527 6.0641255"
   version="1.1"
   id="svg5"
   inkscape:version="1.1.2 (b8e25be833, 2022-02-05)"
   sodipodi:docname="ico_2.svg"
   xmlns:inkscape="http://www.inkscape.org/namespaces/inkscape"
   xmlns:sodipodi="http://sodipodi.sourceforge.net/DTD/sodipodi-0.dtd"
   xmlns="http://www.w3.org/2000/svg"
   xmlns:svg="http://www.w3.org/2000/svg">
  <sodipodi:namedview
     id="namedview7"
     pagecolor="#ffffff"
     bordercolor="#666666"
     borderopacity="1.0"
     inkscape:pageshadow="2"
     inkscape:pageopacity="0.0"
     inkscape:pagecheckerboard="0"
     inkscape:document-units="mm"
     showgrid="false"
     width="15mm"
     fit-margin-top="0"
     fit-margin-left="0"
     fit-margin-right="0"
     fit-margin-bottom="0"
     inkscape:zoom="11.844781"
     inkscape:cx="28.6202"
     inkscape:cy="-2.532761"
     inkscape:window-width="1920"
     inkscape:window-height="1017"
     inkscape:window-x="-8"
     inkscape:window-y="-8"
     inkscape:window-maximized="1"
     inkscape:current-layer="layer1" />
  <defs
     id="defs2" />
  <g
     inkscape:label="Слой 1"
     inkscape:groupmode="layer"
     id="layer1"
     transform="translate(-0.48610104,-3.8590685)">
    <path
       style="fill:none;stroke:#000000;stroke-width:0.26653px;stroke-linecap:butt;stroke-linejoin:miter;stroke-opacity:1"
       d="M 1.5054966,4.0167554 13.36648,3.9076849 Z"
       id="path1249" />
    <path
       style="fill:#ffffff;stroke:#000000;stroke-width:0.1"
       id="path881"
       sodipodi:type="arc"
       sodipodi:cx="4.1547832"
       sodipodi:cy="9.1583929"
       sodipodi:rx="0.60311371"
       sodipodi:ry="0.60311371"
       sodipodi:start="0"
       sodipodi:end="3.1349397"
       sodipodi:arc-type="arc"
       d="M 4.757897,9.1583929 A 0.60311371,0.60311371 0 0 1 4.1567895,9.7615033 0.60311371,0.60311371 0 0 1 3.5516829,9.1624054"
       sodipodi:open="true" />
    <path
       style="fill:none;stroke:#000000;stroke-width:0.1"
       id="circle963"
       sodipodi:type="arc"
       sodipodi:cx="2.9932311"
       sodipodi:cy="8.823329"
       sodipodi:rx="0.60311371"
       sodipodi:ry="0.60311371"
       sodipodi:start="0.56457789"
       sodipodi:end="3.4935023"
       sodipodi:arc-type="arc"
       d="M 3.5027503,9.1460305 A 0.60311371,0.60311371 0 0 1 2.7264294,9.3642199 0.60311371,0.60311371 0 0 1 2.4270785,8.6154411"
       sodipodi:open="true" />
    <path
       style="fill:none;stroke:#000000;stroke-width:0.1"
       id="circle983"
       sodipodi:type="arc"
       sodipodi:cx="5.3833485"
       sodipodi:cy="9.136055"
       sodipodi:rx="0.60311371"
       sodipodi:ry="0.60311371"
       sodipodi:start="0"
       sodipodi:end="3.1101725"
       sodipodi:open="true"
       sodipodi:arc-type="arc"
       d="M 5.9864622,9.136055 A 0.60311371,0.60311371 0 0 1 5.392823,9.7390943 0.60311371,0.60311371 0 0 1 4.7805324,9.1550018" />
    <path
       style="fill:none;stroke:#000000;stroke-width:0.1"
       id="circle985"
       sodipodi:type="arc"
       sodipodi:cx="6.5672383"
       sodipodi:cy="9.2700806"
       sodipodi:rx="0.60311371"
       sodipodi:ry="0.60311371"
       sodipodi:start="0"
       sodipodi:end="3.15554"
       sodipodi:open="true"
       sodipodi:arc-type="arc"
       d="M 7.170352,9.2700806 A 0.60311371,0.60311371 0 0 1 6.8663636,9.7937887 0.60311371,0.60311371 0 0 1 6.260838,9.7895659 0.60311371,0.60311371 0 0 1 5.9641833,9.261669" />
    <path
       style="fill:none;stroke:#000000;stroke-width:0.1"
       id="circle987"
       sodipodi:type="arc"
       sodipodi:cx="7.818141"
       sodipodi:cy="9.1583929"
       sodipodi:rx="0.60311371"
       sodipodi:ry="0.60311371"
       sodipodi:start="0"
       sodipodi:end="3.1291694"
       sodipodi:open="true"
       sodipodi:arc-type="arc"
       d="M 8.4212547,9.1583929 A 0.60311371,0.60311371 0 0 1 7.8218873,9.761495 0.60311371,0.60311371 0 0 1 7.2150738,9.1658853" />
    <path
       style="fill:none;stroke:#000000;stroke-width:0.1"
       id="circle989"
       sodipodi:type="arc"
       sodipodi:cx="9.0243683"
       sodipodi:cy="9.0690432"
       sodipodi:rx="0.60311371"
       sodipodi:ry="0.60311371"
       sodipodi:start="6.1451983"
       sodipodi:end="3.1051393"
       sodipodi:arc-type="arc"
       d="M 9.6217493,8.9860851 A 0.60311371,0.60311371 0 0 1 9.3785879,9.557177 0.60311371,0.60311371 0 0 1 8.7602434,9.6112463 0.60311371,0.60311371 0 0 1 8.4216553,9.0910238"
       sodipodi:open="true" />
    <path
       style="fill:none;stroke:#000000;stroke-width:0.1"
       id="circle991"
       sodipodi:type="arc"
       sodipodi:cx="10.297608"
       sodipodi:cy="8.9126806"
       sodipodi:rx="0.60311371"
       sodipodi:ry="0.60311371"
       sodipodi:start="0"
       sodipodi:end="3.0683508"
       sodipodi:open="true"
       sodipodi:arc-type="arc"
       d="M 10.900722,8.9126806 A 0.60311371,0.60311371 0 0 1 10.31969,9.51539 0.60311371,0.60311371 0 0 1 9.6961116,8.9568143" />
    <path
       style="fill:none;stroke:#000000;stroke-width:0.1"
       id="circle1110"
       sodipodi:type="arc"
       sodipodi:cx="1.9210289"
       sodipodi:cy="8.17554"
       sodipodi:rx="0.60311371"
       sodipodi:ry="0.60311371"
       sodipodi:start="0.74347444"
       sodipodi:end="4.208765"
       sodipodi:arc-type="arc"
       d="M 2.3649937,8.5837572 A 0.60311371,0.60311371 0 0 1 1.7268641,8.7465445 0.60311371,0.60311371 0 0 1 1.3202449,8.2285001 0.60311371,0.60311371 0 0 1 1.6299645,7.6473092"
       sodipodi:open="true" />
    <path
       style="fill:none;stroke:#000000;stroke-width:0.1"
       id="circle1112"
       sodipodi:type="arc"
       sodipodi:cx="1.228565"
       sodipodi:cy="7.1033378"
       sodipodi:rx="0.60311371"
       sodipodi:ry="0.60311371"
       sodipodi:start="0"
       sodipodi:end="4.6033464"
       sodipodi:open="true"
       sodipodi:arc-type="arc"
       d="M 1.8316787,7.1033378 A 0.60311371,0.60311371 0 0 1 1.2504818,7.7060531 0.60311371,0.60311371 0 0 1 0.62704416,7.1471425 0.60311371,0.60311371 0 0 1 1.1629302,6.5038061" />
    <path
       style="fill:none;stroke:#000000;stroke-width:0.1"
       id="circle1114"
       sodipodi:type="arc"
       sodipodi:cx="1.1392148"
       sodipodi:cy="5.8524351"
       sodipodi:rx="0.60311371"
       sodipodi:ry="0.60311371"
       sodipodi:start="1.6119055"
       sodipodi:end="4.7301012"
       sodipodi:arc-type="arc"
       d="M 1.1144282,6.4550393 A 0.60311371,0.60311371 0 0 1 0.53636187,5.8346997 0.60311371,0.60311371 0 0 1 1.1498967,5.249416"
       sodipodi:open="true" />
    <path
       style="fill:#ffffff;stroke:#000000;stroke-width:0.1"
       id="circle1116"
       sodipodi:type="arc"
       sodipodi:cx="1.1615523"
       sodipodi:cy="4.5121822"
       sodipodi:rx="0.60311371"
       sodipodi:ry="0.60311371"
       sodipodi:start="1.6186412"
       sodipodi:end="5.3192406"
       sodipodi:arc-type="arc"
       d="M 1.1327074,5.1146058 A 0.60311371,0.60311371 0 0 1 0.58352207,4.6843077 0.60311371,0.60311371 0 0 1 0.80785019,4.0236733 0.60311371,0.60311371 0 0 1 1.5054984,4.016756"
       sodipodi:open="true" />
    <path
       style="fill:none;stroke:#000000;stroke-width:0.0957919"
       id="circle1204"
       transform="scale(-1,1)"
       sodipodi:type="arc"
       sodipodi:cx="-11.487001"
       sodipodi:cy="8.7326193"
       sodipodi:rx="0.57773387"
       sodipodi:ry="0.57773387"
       sodipodi:start="0.22748656"
       sodipodi:end="3.4480963"
       sodipodi:arc-type="arc"
       d="m -10.924152,8.8629153 a 0.57773387,0.57773387 0 0 1 -0.408876,0.426542 0.57773387,0.57773387 0 0 1 -0.569926,-0.1558895 0.57773387,0.57773387 0 0 1 -0.134856,-0.5752665"
       sodipodi:open="true" />
    <path
       style="fill:none;stroke:#000000;stroke-width:0.0957919"
       id="circle1208"
       transform="scale(-1,1)"
       sodipodi:type="arc"
       sodipodi:cx="-12.514083"
       sodipodi:cy="8.1120901"
       sodipodi:rx="0.57773387"
       sodipodi:ry="0.57773387"
       sodipodi:start="0.57753426"
       sodipodi:end="3.9353011"
       sodipodi:arc-type="arc"
       d="m -12.030051,8.4275096 a 0.57773387,0.57773387 0 0 1 -0.55663,0.2577349 0.57773387,0.57773387 0 0 1 -0.474791,-0.3883793 0.57773387,0.57773387 0 0 1 0.142279,-0.5966754"
       sodipodi:open="true" />
    <path
       style="fill:none;stroke:#000000;stroke-width:0.0957919"
       id="circle1210"
       transform="scale(-1,1)"
       sodipodi:type="arc"
       sodipodi:cx="-13.177407"
       sodipodi:cy="7.0850077"
       sodipodi:rx="0.57773387"
       sodipodi:ry="0.57773387"
       sodipodi:start="1.1909756"
       sodipodi:end="4.5358285"
       sodipodi:arc-type="arc"
       d="M -12.96321,7.6215671 A 0.57773387,0.57773387 0 0 1 -13.564884,7.513538 0.57773387,0.57773387 0 0 1 -13.732756,6.9257447 0.57773387,0.57773387 0 0 1 -13.278883,6.5162554"
       sodipodi:open="true" />
    <path
       style="fill:none;stroke:#000000;stroke-width:0.0957919"
       id="circle1212"
       transform="scale(-1,1)"
       sodipodi:type="arc"
       sodipodi:cx="-13.262998"
       sodipodi:cy="5.886745"
       sodipodi:rx="0.57773387"
       sodipodi:ry="0.57773387"
       sodipodi:start="1.3939303"
       sodipodi:end="4.6900017"
       sodipodi:arc-type="arc"
       d="m -13.161348,6.4554662 a 0.57773387,0.57773387 0 0 1 -0.561933,-0.2195576 0.57773387,0.57773387 0 0 1 -0.06001,-0.6003115 0.57773387,0.57773387 0 0 1 0.507357,-0.3264412"
       sodipodi:open="true" />
    <path
       style="fill:#ffffff;stroke:#000000;stroke-width:0.0957919"
       id="circle1214"
       transform="scale(-1,1)"
       sodipodi:type="arc"
       sodipodi:cx="-13.2416"
       sodipodi:cy="4.6028919"
       sodipodi:rx="0.57773387"
       sodipodi:ry="0.54811823"
       sodipodi:start="1.1713966"
       sodipodi:end="4.7441656"
       sodipodi:arc-type="arc"
       d="m -13.016939,5.1078703 a 0.57773387,0.54811823 0 0 1 -0.635675,-0.1197815 0.57773387,0.54811823 0 0 1 -0.118457,-0.604511 0.57773387,0.54811823 0 0 1 0.547826,-0.3285274"
       sodipodi:open="true" />
  </g>
</svg>
